# xmcd CD database file
#
# Track frame offsets:
#	150
#	15945
#	30237
#	43958
#	58990
#	72616
#	86777
#	102285
#	118227
#	133179
#	147959
#	160708
#	173851
#	187389
#	200645
#	214022
#	226649
#	240439
#	253110
#	268321
#	280484
#
# Disc length: 3931 seconds
#
# Revision: 0
# Processed by: cddbd v1.5.2PL0 Copyright (c) Steve Scherf et al.
# Submitted via: CDex 1.70beta2
#
DISCID=440f5915
DTITLE=Benny Carter - Giants of Jazz (1)
DYEAR=1900
DGENRE=Jazz
TTITLE0=Six or Seven Times: The Little Chocolate Dandies
TTITLE1=I’d Love It: McKinney’s Cotton Pickers
TTITLE2=Chinatown, My Chinatown: Fletcher Henderson and His Orchestra 
TTITLE3=Keep a Song in Your Soul: Fletcher Henderson and His Orchestra 
TTITLE4=Dee Blues: The Chocolate Dandies
TTITLE5=I Never Knew: The Chocolate Dandies
TTITLE6=Once upon a Time: The Chocolate Dandies 
TTITLE7=Krazy Kapers: The Chocolate Dandies
TTITLE8=Apologies: Mezz Mezzrow and His Orchestra
TTITLE9=Stardust: Willie Lewis and His Orchestra
TTITLE10=Swingin’ at Maida Vale: Benny Carter and His Orchestra
TTITLE11=Waltzing the Blues: Benny Carter and His Swing Quartet 
TTITLE12=Jingle Bells: Benny Carter and His Swing Quintet
TTITLE13=Skip It: Benny Carter and His Orchestra
TTITLE14=Pardon Me, Pretty Baby: Benny Carter and His Orchestra 
TTITLE15=My Buddy: Benny Carter and His Orchestra
TTITLE16=I’m Coming, Virginia: Benny Carter and His Orchestra
TTITLE17=I’m in the Mood for Swing: Lionel Hampton and His Orchestra 
TTITLE18=Shoe Shiners Drag: Lionel Hampton and His Orchestra 
TTITLE19=On the Bumpy Road to Love: Teddy Wilson and His Orchestra 
TTITLE20=They Say: Teddy Wilson and His Orchestra 
EXTD=
EXTT0=
EXTT1=
EXTT2=
EXTT3=
EXTT4=
EXTT5=
EXTT6=
EXTT7=
EXTT8=
EXTT9=
EXTT10=
EXTT11=
EXTT12=
EXTT13=
EXTT14=
EXTT15=
EXTT16=
EXTT17=
EXTT18=
EXTT19=
EXTT20=
PLAYORDER=
